Coordinates
version=1
nRows=60
nColumns=12
inDegrees=yes

Units are S.I. units (second, meters, Newtons, ...)
Angles are in degrees

endheader
time	SC_y	SC_z	SC_x	AC_y	AC_z	AC_x	GH_y	GH_z	GH_yy	EL_x	PS_y
       0.0              -27.09          19.19          53.94          48.93         -10.48         -1.433          12.25          10.91         -46.84          108.4          88.93
  0.004382              -27.09          19.19          53.94          48.94         -10.48          -1.43          12.24          10.91         -46.86          108.4          88.93
  0.008763              -27.09          19.19          53.94          48.94         -10.48         -1.427          12.23          10.91         -46.87          108.3          88.93
   0.01315              -27.09          19.19          53.94          48.94         -10.48         -1.424          12.21          10.91         -46.88          108.3          88.94
   0.01753              -27.09          19.19          53.94          48.94         -10.48          -1.42           12.2          10.92          -46.9          108.3          88.94
   0.02191              -27.08          19.19          53.94          48.95         -10.48         -1.417          12.18          10.92         -46.92          108.3          88.94
   0.02629              -27.08          19.19          53.94          48.95         -10.48         -1.413          12.16          10.92         -46.93          108.3          88.94
   0.03067              -27.08          19.19          53.94          48.95         -10.48         -1.409          12.15          10.92         -46.95          108.3          88.94
   0.03505              -27.08          19.19          53.94          48.96         -10.48         -1.404          12.13          10.92         -46.97          108.3          88.95
   0.03944              -27.08          19.19          53.94          48.96         -10.48         -1.399          12.11          10.92          -47.0          108.3          88.95
   0.04382              -27.07          19.19          53.94          48.96         -10.48         -1.394          12.08          10.93         -47.02          108.3          88.95
    0.0482              -27.07           19.2          53.94          48.97         -10.48         -1.389          12.06          10.93         -47.05          108.3          88.95
   0.05258              -27.07           19.2          53.94          48.97         -10.48         -1.383          12.03          10.93         -47.07          108.3          88.96
   0.05696              -27.07           19.2          53.95          48.98         -10.48         -1.376           12.0          10.93          -47.1          108.3          88.96
   0.06134              -27.06           19.2          53.95          48.98         -10.48         -1.369          11.97          10.94         -47.13          108.3          88.96
   0.06573              -27.06           19.2          53.95          48.99         -10.48         -1.362          11.94          10.94         -47.17          108.3          88.96
   0.07011              -27.06           19.2          53.95          48.99         -10.47         -1.353           11.9          10.94         -47.21          108.3          88.97
   0.07449              -27.05           19.2          53.95           49.0         -10.47         -1.344          11.87          10.95         -47.25          108.3          88.97
   0.07887              -27.05          19.21          53.95          49.01         -10.47         -1.335          11.82          10.95         -47.29          108.3          88.98
   0.08325              -27.04          19.21          53.95          49.02         -10.47         -1.324          11.78          10.96         -47.34          108.3          88.98
   0.08763              -27.04          19.21          53.96          49.03         -10.47         -1.312          11.72          10.96          -47.4          108.3          88.99
   0.09202              -27.03          19.21          53.96          49.04         -10.47         -1.299          11.67          10.97         -47.46          108.3          88.99
    0.0964              -27.03          19.21          53.96          49.05         -10.47         -1.285           11.6          10.97         -47.52          108.3           89.0
    0.1008              -27.02          19.22          53.96          49.06         -10.47         -1.269          11.53          10.98         -47.59          108.3          89.01
    0.1052              -27.01          19.22          53.97          49.07         -10.47         -1.251          11.46          10.99         -47.67          108.2          89.02
    0.1095               -27.0          19.22          53.97          49.09         -10.47         -1.232          11.37           11.0         -47.76          108.2          89.02
    0.1139              -26.99          19.23          53.97           49.1         -10.47         -1.209          11.27          11.01         -47.87          108.2          89.04
    0.1183              -26.98          19.23          53.98          49.12         -10.47         -1.185          11.17          11.02         -47.98          108.2          89.05
    0.1227              -26.97          19.24          53.98          49.14         -10.46         -1.157          11.04          11.03         -48.11          108.2          89.06
    0.1271              -26.96          19.24          53.99          49.17         -10.46         -1.125           10.9          11.04         -48.25          108.2          89.07
    0.1315              -26.94          19.25           54.0           49.2         -10.46         -1.088          10.74          11.06         -48.42          108.1          89.09
    0.1358              -26.92          19.26           54.0          49.23         -10.46         -1.047          10.56          11.08         -48.61          108.1          89.11
    0.1402               -26.9          19.27          54.01          49.26         -10.46        -0.9984          10.35           11.1         -48.83          108.1          89.13
    0.1446              -26.88          19.28          54.02          49.31         -10.45        -0.9424          10.11          11.12         -49.09          108.1          89.16
     0.149              -26.85          19.29          54.03          49.36         -10.45        -0.8769          9.819          11.15         -49.39          108.0          89.19
    0.1534              -26.82           19.3          54.04          49.41         -10.45        -0.7997          9.481          11.18         -49.74          108.0          89.22
    0.1577              -26.78          19.32          54.06          49.48         -10.44        -0.7079          9.079          11.22         -50.16          107.9          89.27
    0.1621              -26.73          19.34          54.08          49.57         -10.44        -0.5979          8.598          11.27         -50.66          107.8          89.32
    0.1665              -26.67          19.37           54.1          49.67         -10.43        -0.4648          8.015          11.33         -51.27          107.8          89.38
    0.1709               -26.6           19.4          54.13          49.79         -10.42        -0.3022          7.304           11.4         -52.01          107.7          89.45
    0.1753              -26.51          19.43          54.17          49.94         -10.41        -0.1015          6.426          11.49         -52.93          107.5          89.55
    0.1797               -26.4          19.48          54.21          50.13          -10.4         0.1487          5.331          11.59         -54.08          107.4          89.66
     0.184              -26.27          19.54          54.26          50.37         -10.38         0.4639          3.951          11.73         -55.52          107.2          89.81
    0.1884              -26.09          19.61          54.33          50.68         -10.36         0.8646          2.197           11.9         -57.35          107.0          89.99
    0.1928              -25.87          19.71          54.42          51.06         -10.34          1.378       -0.04728          12.13         -59.69          106.6          90.23
    0.1972              -25.58          19.83          54.54          51.56          -10.3          2.036         -2.928          12.41          -62.7          106.3          90.53
    0.2016              -25.22          19.99          54.68           52.2         -10.26          2.876         -6.607          12.78         -66.55          105.7          90.92
    0.2059              -24.76          20.18          54.86           53.0         -10.21          3.934         -11.23          13.23         -71.38          105.1          91.41
    0.2103               -24.2          20.42          55.09          53.98         -10.14          5.222         -16.87          13.79         -77.27          104.3           92.0
    0.2147              -23.55           20.7          55.34          55.11         -10.07          6.715         -23.41          14.44          -84.1          103.4          92.69
    0.2191              -22.85           21.0          55.62          56.33         -9.985          8.332         -30.48          15.14          -91.5          102.4          93.43
    0.2235              -22.15           21.3           55.9          57.56         -9.903          9.949         -37.56          15.84         -98.89          101.5          94.18
    0.2279               -21.5          21.57          56.16          58.69         -9.827          11.44         -44.09          16.48         -105.7          100.6          94.87
    0.2322              -20.94          21.81          56.38          59.67         -9.762          12.73         -49.73          17.04         -111.6          99.77          95.46
    0.2366              -20.48          22.01          56.57          60.47         -9.709          13.79         -54.36           17.5         -116.4          99.13          95.95
     0.241              -20.11          22.16          56.71           61.1         -9.666          14.63         -58.04          17.86         -120.3          98.62          96.34
    0.2454              -19.83          22.29          56.83           61.6         -9.633          15.29         -60.92          18.15         -123.3          98.23          96.64
    0.2498               -19.6          22.38          56.92          61.99         -9.607           15.8         -63.16          18.37         -125.6          97.91          96.88
    0.2541              -19.43          22.46          56.98          62.29         -9.587           16.2         -64.92          18.54         -127.5          97.67          97.06
    0.2585              -19.29          22.51          57.04          62.53         -9.571          16.52          -66.3          18.68         -128.9          97.48          97.21
